<mxfile host="app.diagrams.net" agent="Mozilla/5.0 (X11; Ubuntu; Linux x86_64; rv:135.0) Gecko/20100101 Firefox/135.0" version="26.0.16" pages="2">
  <diagram name="PÃ¡gina-1" id="MNPUa2y_HAiEvFGfm7-J">
    <mxGraphModel grid="0" page="0" gridSize="10" guides="1" tooltips="1" connect="1" arrows="1" fold="1" pageScale="1" pageWidth="3300" pageHeight="4681" math="0" shadow="0">
      <root>
        <mxCell id="0" />
        <mxCell id="1" parent="0" />
        <mxCell id="vG0cqCVjyC4AnDkBP3Rt-16" value="" style="edgeStyle=none;curved=1;rounded=0;orthogonalLoop=1;jettySize=auto;html=1;fontSize=12;startSize=8;endSize=8;endArrow=none;startFill=0;" edge="1" parent="1" source="vG0cqCVjyC4AnDkBP3Rt-1" target="vG0cqCVjyC4AnDkBP3Rt-10">
          <mxGeometry relative="1" as="geometry" />
        </mxCell>
        <mxCell id="vG0cqCVjyC4AnDkBP3Rt-18" value="" style="edgeStyle=none;curved=1;rounded=0;orthogonalLoop=1;jettySize=auto;html=1;fontSize=12;startSize=8;endSize=8;endArrow=none;startFill=0;exitX=0.85;exitY=1.049;exitDx=0;exitDy=0;exitPerimeter=0;" edge="1" parent="1" source="vG0cqCVjyC4AnDkBP3Rt-1" target="vG0cqCVjyC4AnDkBP3Rt-12">
          <mxGeometry relative="1" as="geometry">
            <mxPoint x="148" y="370" as="sourcePoint" />
          </mxGeometry>
        </mxCell>
        <mxCell id="vG0cqCVjyC4AnDkBP3Rt-41" style="edgeStyle=none;curved=1;rounded=0;orthogonalLoop=1;jettySize=auto;html=1;exitX=0.25;exitY=0;exitDx=0;exitDy=0;entryX=0.5;entryY=1;entryDx=0;entryDy=0;fontSize=12;startSize=8;endSize=8;endArrow=none;startFill=0;" edge="1" parent="1" source="vG0cqCVjyC4AnDkBP3Rt-1" target="vG0cqCVjyC4AnDkBP3Rt-39">
          <mxGeometry relative="1" as="geometry" />
        </mxCell>
        <mxCell id="vG0cqCVjyC4AnDkBP3Rt-42" style="edgeStyle=none;curved=1;rounded=0;orthogonalLoop=1;jettySize=auto;html=1;exitX=0.75;exitY=0;exitDx=0;exitDy=0;entryX=0.5;entryY=1;entryDx=0;entryDy=0;fontSize=12;startSize=8;endSize=8;endArrow=none;startFill=0;" edge="1" parent="1" source="vG0cqCVjyC4AnDkBP3Rt-1" target="vG0cqCVjyC4AnDkBP3Rt-37">
          <mxGeometry relative="1" as="geometry" />
        </mxCell>
        <mxCell id="vG0cqCVjyC4AnDkBP3Rt-1" value="&lt;font style=&quot;font-size: 17px;&quot;&gt;Departamento&lt;/font&gt;" style="rounded=0;whiteSpace=wrap;html=1;" vertex="1" parent="1">
          <mxGeometry x="60" y="328" width="120" height="41" as="geometry" />
        </mxCell>
        <mxCell id="vG0cqCVjyC4AnDkBP3Rt-64" value="" style="edgeStyle=elbowEdgeStyle;rounded=0;orthogonalLoop=1;jettySize=auto;html=1;fontSize=12;startSize=8;endSize=8;endArrow=none;startFill=0;exitX=0.2;exitY=-0.024;exitDx=0;exitDy=0;exitPerimeter=0;" edge="1" parent="1" source="vG0cqCVjyC4AnDkBP3Rt-3" target="vG0cqCVjyC4AnDkBP3Rt-55">
          <mxGeometry relative="1" as="geometry" />
        </mxCell>
        <mxCell id="vG0cqCVjyC4AnDkBP3Rt-66" value="" style="edgeStyle=elbowEdgeStyle;rounded=0;orthogonalLoop=1;jettySize=auto;html=1;fontSize=12;startSize=8;endSize=8;endArrow=none;startFill=0;" edge="1" parent="1" source="vG0cqCVjyC4AnDkBP3Rt-3" target="vG0cqCVjyC4AnDkBP3Rt-57">
          <mxGeometry relative="1" as="geometry" />
        </mxCell>
        <mxCell id="vG0cqCVjyC4AnDkBP3Rt-67" style="edgeStyle=elbowEdgeStyle;rounded=0;orthogonalLoop=1;jettySize=auto;html=1;entryX=0.588;entryY=1.054;entryDx=0;entryDy=0;fontSize=12;startSize=8;endSize=8;endArrow=none;startFill=0;exitX=0.342;exitY=0.098;exitDx=0;exitDy=0;exitPerimeter=0;entryPerimeter=0;" edge="1" parent="1" target="vG0cqCVjyC4AnDkBP3Rt-56">
          <mxGeometry relative="1" as="geometry">
            <mxPoint x="554.04" y="289.01800000000003" as="sourcePoint" />
            <mxPoint x="488" y="219" as="targetPoint" />
          </mxGeometry>
        </mxCell>
        <mxCell id="vG0cqCVjyC4AnDkBP3Rt-68" style="edgeStyle=orthogonalEdgeStyle;rounded=0;orthogonalLoop=1;jettySize=auto;html=1;exitX=1;exitY=0;exitDx=0;exitDy=0;entryX=0;entryY=0.5;entryDx=0;entryDy=0;fontSize=12;startSize=8;endSize=8;endArrow=none;startFill=0;" edge="1" parent="1" source="vG0cqCVjyC4AnDkBP3Rt-3" target="vG0cqCVjyC4AnDkBP3Rt-58">
          <mxGeometry relative="1" as="geometry" />
        </mxCell>
        <mxCell id="7z_1NLkMfc1B31nBbupq-2" style="edgeStyle=orthogonalEdgeStyle;rounded=0;orthogonalLoop=1;jettySize=auto;html=1;exitX=1;exitY=0.5;exitDx=0;exitDy=0;entryX=0;entryY=0.5;entryDx=0;entryDy=0;shape=link;strokeWidth=2;" edge="1" parent="1" source="vG0cqCVjyC4AnDkBP3Rt-3" target="7z_1NLkMfc1B31nBbupq-1">
          <mxGeometry relative="1" as="geometry" />
        </mxCell>
        <mxCell id="vG0cqCVjyC4AnDkBP3Rt-3" value="&lt;font style=&quot;font-size: 17px;&quot;&gt;Alumno&lt;/font&gt;" style="rounded=0;whiteSpace=wrap;html=1;" vertex="1" parent="1">
          <mxGeometry x="505" y="269.5" width="120" height="41" as="geometry" />
        </mxCell>
        <mxCell id="vG0cqCVjyC4AnDkBP3Rt-17" value="" style="edgeStyle=elbowEdgeStyle;rounded=0;orthogonalLoop=1;jettySize=auto;html=1;fontSize=12;startSize=8;endSize=8;endArrow=none;startFill=0;" edge="1" parent="1" source="vG0cqCVjyC4AnDkBP3Rt-10" target="vG0cqCVjyC4AnDkBP3Rt-3">
          <mxGeometry relative="1" as="geometry" />
        </mxCell>
        <mxCell id="vG0cqCVjyC4AnDkBP3Rt-10" value="&lt;font style=&quot;font-size: 17px;&quot;&gt;Estudiar&lt;/font&gt;" style="rhombus;whiteSpace=wrap;html=1;" vertex="1" parent="1">
          <mxGeometry x="255" y="312.75" width="111" height="71.5" as="geometry" />
        </mxCell>
        <mxCell id="vG0cqCVjyC4AnDkBP3Rt-30" style="edgeStyle=orthogonalEdgeStyle;rounded=0;orthogonalLoop=1;jettySize=auto;html=1;exitX=1;exitY=0.5;exitDx=0;exitDy=0;fontSize=12;startSize=8;endSize=8;entryX=0;entryY=0.25;entryDx=0;entryDy=0;endArrow=none;startFill=0;" edge="1" parent="1" source="vG0cqCVjyC4AnDkBP3Rt-11" target="vG0cqCVjyC4AnDkBP3Rt-21">
          <mxGeometry relative="1" as="geometry">
            <mxPoint x="402" y="586" as="targetPoint" />
            <Array as="points">
              <mxPoint x="391" y="534" />
              <mxPoint x="391" y="589" />
            </Array>
          </mxGeometry>
        </mxCell>
        <mxCell id="vG0cqCVjyC4AnDkBP3Rt-31" style="edgeStyle=orthogonalEdgeStyle;rounded=0;orthogonalLoop=1;jettySize=auto;html=1;exitX=0;exitY=0.5;exitDx=0;exitDy=0;fontSize=12;startSize=8;endSize=8;entryX=1;entryY=0.25;entryDx=0;entryDy=0;endArrow=none;startFill=0;" edge="1" parent="1" source="vG0cqCVjyC4AnDkBP3Rt-11" target="vG0cqCVjyC4AnDkBP3Rt-20">
          <mxGeometry relative="1" as="geometry">
            <mxPoint x="224" y="588" as="targetPoint" />
            <Array as="points">
              <mxPoint x="225" y="534" />
              <mxPoint x="225" y="589" />
            </Array>
          </mxGeometry>
        </mxCell>
        <mxCell id="vG0cqCVjyC4AnDkBP3Rt-11" value="&lt;font style=&quot;font-size: 17px;&quot;&gt;Administrar&lt;/font&gt;" style="rhombus;whiteSpace=wrap;html=1;" vertex="1" parent="1">
          <mxGeometry x="255" y="498" width="111" height="71.5" as="geometry" />
        </mxCell>
        <mxCell id="vG0cqCVjyC4AnDkBP3Rt-33" value="" style="edgeStyle=none;curved=1;rounded=0;orthogonalLoop=1;jettySize=auto;html=1;fontSize=12;startSize=8;endSize=8;endArrow=none;startFill=0;" edge="1" parent="1" source="vG0cqCVjyC4AnDkBP3Rt-12">
          <mxGeometry relative="1" as="geometry">
            <mxPoint x="159" y="575" as="targetPoint" />
          </mxGeometry>
        </mxCell>
        <mxCell id="vG0cqCVjyC4AnDkBP3Rt-12" value="&lt;font style=&quot;font-size: 17px;&quot;&gt;Trabajar&lt;/font&gt;" style="rhombus;whiteSpace=wrap;html=1;" vertex="1" parent="1">
          <mxGeometry x="102" y="424" width="111" height="71.5" as="geometry" />
        </mxCell>
        <mxCell id="7z_1NLkMfc1B31nBbupq-7" style="edgeStyle=orthogonalEdgeStyle;rounded=0;orthogonalLoop=1;jettySize=auto;html=1;exitX=0.5;exitY=0;exitDx=0;exitDy=0;entryX=0;entryY=0.75;entryDx=0;entryDy=0;strokeWidth=2;" edge="1" parent="1" source="vG0cqCVjyC4AnDkBP3Rt-13" target="7z_1NLkMfc1B31nBbupq-5">
          <mxGeometry relative="1" as="geometry">
            <Array as="points">
              <mxPoint x="501" y="418" />
              <mxPoint x="585" y="418" />
              <mxPoint x="585" y="476" />
            </Array>
          </mxGeometry>
        </mxCell>
        <mxCell id="vG0cqCVjyC4AnDkBP3Rt-13" value="&lt;font style=&quot;font-size: 17px;&quot;&gt;Participar&lt;/font&gt;" style="rhombus;whiteSpace=wrap;html=1;" vertex="1" parent="1">
          <mxGeometry x="445.5" y="438" width="111" height="71.5" as="geometry" />
        </mxCell>
        <mxCell id="vG0cqCVjyC4AnDkBP3Rt-22" style="edgeStyle=orthogonalEdgeStyle;rounded=0;orthogonalLoop=1;jettySize=auto;html=1;exitX=0;exitY=0.5;exitDx=0;exitDy=0;fontSize=12;startSize=8;endSize=8;entryX=1;entryY=0.75;entryDx=0;entryDy=0;" edge="1" parent="1" source="vG0cqCVjyC4AnDkBP3Rt-15" target="vG0cqCVjyC4AnDkBP3Rt-20">
          <mxGeometry relative="1" as="geometry">
            <mxPoint x="222" y="610" as="targetPoint" />
            <Array as="points">
              <mxPoint x="223" y="689" />
              <mxPoint x="223" y="610" />
            </Array>
          </mxGeometry>
        </mxCell>
        <mxCell id="vG0cqCVjyC4AnDkBP3Rt-29" style="edgeStyle=orthogonalEdgeStyle;rounded=0;orthogonalLoop=1;jettySize=auto;html=1;exitX=1;exitY=0.5;exitDx=0;exitDy=0;fontSize=12;startSize=8;endSize=8;entryX=0;entryY=0.75;entryDx=0;entryDy=0;endArrow=none;startFill=0;" edge="1" parent="1" source="vG0cqCVjyC4AnDkBP3Rt-15" target="vG0cqCVjyC4AnDkBP3Rt-21">
          <mxGeometry relative="1" as="geometry">
            <mxPoint x="402" y="602" as="targetPoint" />
            <Array as="points">
              <mxPoint x="392" y="689" />
              <mxPoint x="392" y="610" />
            </Array>
          </mxGeometry>
        </mxCell>
        <mxCell id="vG0cqCVjyC4AnDkBP3Rt-15" value="&lt;font style=&quot;font-size: 17px;&quot;&gt;Trabajar&lt;/font&gt;" style="rhombus;whiteSpace=wrap;html=1;" vertex="1" parent="1">
          <mxGeometry x="255" y="653" width="111" height="71.5" as="geometry" />
        </mxCell>
        <mxCell id="vG0cqCVjyC4AnDkBP3Rt-48" style="edgeStyle=none;curved=1;rounded=0;orthogonalLoop=1;jettySize=auto;html=1;exitX=0;exitY=0.5;exitDx=0;exitDy=0;entryX=1;entryY=0.5;entryDx=0;entryDy=0;fontSize=12;startSize=8;endSize=8;endArrow=none;startFill=0;" edge="1" parent="1" source="vG0cqCVjyC4AnDkBP3Rt-20" target="vG0cqCVjyC4AnDkBP3Rt-47">
          <mxGeometry relative="1" as="geometry" />
        </mxCell>
        <mxCell id="vG0cqCVjyC4AnDkBP3Rt-49" style="edgeStyle=none;curved=1;rounded=0;orthogonalLoop=1;jettySize=auto;html=1;exitX=0.5;exitY=1;exitDx=0;exitDy=0;entryX=1;entryY=0.5;entryDx=0;entryDy=0;fontSize=12;startSize=8;endSize=8;endArrow=none;startFill=0;" edge="1" parent="1" source="vG0cqCVjyC4AnDkBP3Rt-20" target="vG0cqCVjyC4AnDkBP3Rt-45">
          <mxGeometry relative="1" as="geometry" />
        </mxCell>
        <mxCell id="vG0cqCVjyC4AnDkBP3Rt-50" value="" style="edgeStyle=none;curved=1;rounded=0;orthogonalLoop=1;jettySize=auto;html=1;fontSize=12;startSize=8;endSize=8;endArrow=none;startFill=0;" edge="1" parent="1" source="vG0cqCVjyC4AnDkBP3Rt-20" target="vG0cqCVjyC4AnDkBP3Rt-36">
          <mxGeometry relative="1" as="geometry" />
        </mxCell>
        <mxCell id="vG0cqCVjyC4AnDkBP3Rt-51" value="" style="edgeStyle=none;curved=1;rounded=0;orthogonalLoop=1;jettySize=auto;html=1;fontSize=12;startSize=8;endSize=8;endArrow=none;startFill=0;" edge="1" parent="1" target="vG0cqCVjyC4AnDkBP3Rt-46">
          <mxGeometry relative="1" as="geometry">
            <mxPoint x="172" y="621" as="sourcePoint" />
          </mxGeometry>
        </mxCell>
        <mxCell id="7z_1NLkMfc1B31nBbupq-19" style="edgeStyle=orthogonalEdgeStyle;rounded=0;orthogonalLoop=1;jettySize=auto;html=1;entryX=0;entryY=0.5;entryDx=0;entryDy=0;strokeWidth=2;endArrow=none;startFill=0;exitX=0.95;exitY=0.024;exitDx=0;exitDy=0;exitPerimeter=0;" edge="1" parent="1" source="vG0cqCVjyC4AnDkBP3Rt-20" target="7z_1NLkMfc1B31nBbupq-18">
          <mxGeometry relative="1" as="geometry">
            <mxPoint x="402" y="407" as="targetPoint" />
            <mxPoint x="175" y="573" as="sourcePoint" />
            <Array as="points">
              <mxPoint x="174" y="494" />
              <mxPoint x="403" y="494" />
              <mxPoint x="403" y="390" />
            </Array>
          </mxGeometry>
        </mxCell>
        <mxCell id="eHFIpsnLooeIqLXPNTxi-1" style="edgeStyle=orthogonalEdgeStyle;rounded=0;orthogonalLoop=1;jettySize=auto;html=1;exitX=0.25;exitY=0;exitDx=0;exitDy=0;endArrow=none;startFill=0;strokeWidth=2;" edge="1" parent="1" source="vG0cqCVjyC4AnDkBP3Rt-20">
          <mxGeometry relative="1" as="geometry">
            <mxPoint x="31" y="493" as="targetPoint" />
          </mxGeometry>
        </mxCell>
        <mxCell id="vG0cqCVjyC4AnDkBP3Rt-20" value="&lt;font style=&quot;font-size: 17px;&quot;&gt;Profesor&lt;/font&gt;" style="rounded=0;whiteSpace=wrap;html=1;" vertex="1" parent="1">
          <mxGeometry x="60" y="579" width="120" height="41" as="geometry" />
        </mxCell>
        <mxCell id="vG0cqCVjyC4AnDkBP3Rt-59" style="edgeStyle=none;curved=1;rounded=0;orthogonalLoop=1;jettySize=auto;html=1;exitX=1;exitY=0;exitDx=0;exitDy=0;entryX=0;entryY=0.5;entryDx=0;entryDy=0;fontSize=12;startSize=8;endSize=8;endArrow=none;startFill=0;" edge="1" parent="1" source="vG0cqCVjyC4AnDkBP3Rt-21" target="vG0cqCVjyC4AnDkBP3Rt-43">
          <mxGeometry relative="1" as="geometry" />
        </mxCell>
        <mxCell id="vG0cqCVjyC4AnDkBP3Rt-60" value="" style="edgeStyle=none;curved=1;rounded=0;orthogonalLoop=1;jettySize=auto;html=1;fontSize=12;startSize=8;endSize=8;endArrow=none;startFill=0;" edge="1" parent="1" source="vG0cqCVjyC4AnDkBP3Rt-21" target="vG0cqCVjyC4AnDkBP3Rt-52">
          <mxGeometry relative="1" as="geometry" />
        </mxCell>
        <mxCell id="vG0cqCVjyC4AnDkBP3Rt-61" value="" style="edgeStyle=none;curved=1;rounded=0;orthogonalLoop=1;jettySize=auto;html=1;fontSize=12;startSize=8;endSize=8;endArrow=none;startFill=0;" edge="1" parent="1" source="vG0cqCVjyC4AnDkBP3Rt-21" target="vG0cqCVjyC4AnDkBP3Rt-54">
          <mxGeometry relative="1" as="geometry" />
        </mxCell>
        <mxCell id="vG0cqCVjyC4AnDkBP3Rt-62" style="edgeStyle=none;curved=1;rounded=0;orthogonalLoop=1;jettySize=auto;html=1;exitX=1;exitY=1;exitDx=0;exitDy=0;entryX=0;entryY=0.5;entryDx=0;entryDy=0;fontSize=12;startSize=8;endSize=8;endArrow=none;startFill=0;" edge="1" parent="1" source="vG0cqCVjyC4AnDkBP3Rt-21" target="vG0cqCVjyC4AnDkBP3Rt-53">
          <mxGeometry relative="1" as="geometry" />
        </mxCell>
        <mxCell id="vG0cqCVjyC4AnDkBP3Rt-69" value="" style="edgeStyle=none;curved=1;rounded=0;orthogonalLoop=1;jettySize=auto;html=1;fontSize=12;startSize=8;endSize=8;endArrow=none;startFill=0;" edge="1" parent="1" source="vG0cqCVjyC4AnDkBP3Rt-21" target="vG0cqCVjyC4AnDkBP3Rt-13">
          <mxGeometry relative="1" as="geometry" />
        </mxCell>
        <mxCell id="7z_1NLkMfc1B31nBbupq-21" style="edgeStyle=orthogonalEdgeStyle;rounded=0;orthogonalLoop=1;jettySize=auto;html=1;exitX=0.75;exitY=0;exitDx=0;exitDy=0;entryX=0.5;entryY=1;entryDx=0;entryDy=0;strokeWidth=2;" edge="1" parent="1" source="vG0cqCVjyC4AnDkBP3Rt-21" target="7z_1NLkMfc1B31nBbupq-18">
          <mxGeometry relative="1" as="geometry">
            <mxPoint x="618" y="435" as="targetPoint" />
          </mxGeometry>
        </mxCell>
        <mxCell id="vG0cqCVjyC4AnDkBP3Rt-21" value="&lt;font style=&quot;font-size: 17px;&quot;&gt;Proyecto&lt;/font&gt;" style="rounded=0;whiteSpace=wrap;html=1;" vertex="1" parent="1">
          <mxGeometry x="441" y="579" width="120" height="41" as="geometry" />
        </mxCell>
        <mxCell id="vG0cqCVjyC4AnDkBP3Rt-36" value="&lt;font style=&quot;font-size: 17px;&quot;&gt;Nombre&lt;/font&gt;" style="ellipse;whiteSpace=wrap;html=1;" vertex="1" parent="1">
          <mxGeometry x="-109" y="678" width="114" height="46.5" as="geometry" />
        </mxCell>
        <mxCell id="vG0cqCVjyC4AnDkBP3Rt-37" value="&lt;font style=&quot;font-size: 17px;&quot;&gt;Oficina&lt;/font&gt;" style="ellipse;whiteSpace=wrap;html=1;" vertex="1" parent="1">
          <mxGeometry x="141" y="223" width="114" height="46.5" as="geometry" />
        </mxCell>
        <mxCell id="vG0cqCVjyC4AnDkBP3Rt-40" value="" style="edgeStyle=none;curved=1;rounded=0;orthogonalLoop=1;jettySize=auto;html=1;fontSize=12;startSize=8;endSize=8;endArrow=none;startFill=0;" edge="1" parent="1" source="vG0cqCVjyC4AnDkBP3Rt-38" target="vG0cqCVjyC4AnDkBP3Rt-1">
          <mxGeometry relative="1" as="geometry" />
        </mxCell>
        <mxCell id="vG0cqCVjyC4AnDkBP3Rt-38" value="&lt;font style=&quot;font-size: 17px;&quot;&gt;&lt;u&gt;NÃºmero&lt;/u&gt;&lt;/font&gt;" style="ellipse;whiteSpace=wrap;html=1;" vertex="1" parent="1">
          <mxGeometry x="-130" y="325.25" width="114" height="46.5" as="geometry" />
        </mxCell>
        <mxCell id="vG0cqCVjyC4AnDkBP3Rt-39" value="&lt;font style=&quot;font-size: 17px;&quot;&gt;Nombre&lt;/font&gt;" style="ellipse;whiteSpace=wrap;html=1;" vertex="1" parent="1">
          <mxGeometry x="-16" y="223" width="114" height="46.5" as="geometry" />
        </mxCell>
        <mxCell id="vG0cqCVjyC4AnDkBP3Rt-43" value="&lt;font style=&quot;font-size: 17px;&quot;&gt;FechaInicio&lt;/font&gt;" style="ellipse;whiteSpace=wrap;html=1;" vertex="1" parent="1">
          <mxGeometry x="628" y="504" width="114" height="46.5" as="geometry" />
        </mxCell>
        <mxCell id="vG0cqCVjyC4AnDkBP3Rt-45" value="&lt;font style=&quot;font-size: 17px;&quot;&gt;Apellidos&lt;/font&gt;" style="ellipse;whiteSpace=wrap;html=1;" vertex="1" parent="1">
          <mxGeometry x="-2" y="705" width="114" height="46.5" as="geometry" />
        </mxCell>
        <mxCell id="vG0cqCVjyC4AnDkBP3Rt-46" value="&lt;font style=&quot;font-size: 17px;&quot;&gt;Titulo&lt;/font&gt;" style="ellipse;whiteSpace=wrap;html=1;" vertex="1" parent="1">
          <mxGeometry x="120" y="699" width="114" height="46.5" as="geometry" />
        </mxCell>
        <mxCell id="vG0cqCVjyC4AnDkBP3Rt-47" value="&lt;font style=&quot;font-size: 17px;&quot;&gt;&lt;u&gt;NumProf&lt;/u&gt;&lt;/font&gt;" style="ellipse;whiteSpace=wrap;html=1;" vertex="1" parent="1">
          <mxGeometry x="-141" y="622.75" width="114" height="46.5" as="geometry" />
        </mxCell>
        <mxCell id="vG0cqCVjyC4AnDkBP3Rt-52" value="&lt;font style=&quot;font-size: 17px;&quot;&gt;Presupuesto&lt;/font&gt;" style="ellipse;whiteSpace=wrap;html=1;" vertex="1" parent="1">
          <mxGeometry x="628" y="576.25" width="114" height="46.5" as="geometry" />
        </mxCell>
        <mxCell id="vG0cqCVjyC4AnDkBP3Rt-53" value="&lt;font style=&quot;font-size: 17px;&quot;&gt;FechaFin&lt;/font&gt;" style="ellipse;whiteSpace=wrap;html=1;" vertex="1" parent="1">
          <mxGeometry x="628" y="649" width="114" height="46.5" as="geometry" />
        </mxCell>
        <mxCell id="vG0cqCVjyC4AnDkBP3Rt-54" value="&lt;font style=&quot;font-size: 17px;&quot;&gt;&lt;u&gt;IdProyecto&lt;/u&gt;&lt;/font&gt;" style="ellipse;whiteSpace=wrap;html=1;" vertex="1" parent="1">
          <mxGeometry x="444" y="673" width="114" height="46.5" as="geometry" />
        </mxCell>
        <mxCell id="vG0cqCVjyC4AnDkBP3Rt-55" value="&lt;font style=&quot;font-size: 17px;&quot;&gt;&lt;u&gt;NumCta&lt;/u&gt;&lt;/font&gt;" style="ellipse;whiteSpace=wrap;html=1;" vertex="1" parent="1">
          <mxGeometry x="343" y="228" width="114" height="46.5" as="geometry" />
        </mxCell>
        <mxCell id="vG0cqCVjyC4AnDkBP3Rt-56" value="&lt;font style=&quot;font-size: 17px;&quot;&gt;Nombre&lt;/font&gt;" style="ellipse;whiteSpace=wrap;html=1;" vertex="1" parent="1">
          <mxGeometry x="423" y="157" width="114" height="46.5" as="geometry" />
        </mxCell>
        <mxCell id="vG0cqCVjyC4AnDkBP3Rt-57" value="&lt;font style=&quot;font-size: 17px;&quot;&gt;Apellidos&lt;/font&gt;" style="ellipse;whiteSpace=wrap;html=1;" vertex="1" parent="1">
          <mxGeometry x="529" y="126" width="114" height="46.5" as="geometry" />
        </mxCell>
        <mxCell id="vG0cqCVjyC4AnDkBP3Rt-58" value="&lt;font style=&quot;font-size: 17px;&quot;&gt;TelÃ©fono&lt;/font&gt;" style="ellipse;whiteSpace=wrap;html=1;" vertex="1" parent="1">
          <mxGeometry x="687" y="155" width="114" height="46.5" as="geometry" />
        </mxCell>
        <mxCell id="7z_1NLkMfc1B31nBbupq-1" value="" style="triangle;whiteSpace=wrap;html=1;rotation=90;" vertex="1" parent="1">
          <mxGeometry x="844" y="328" width="60" height="80" as="geometry" />
        </mxCell>
        <mxCell id="7z_1NLkMfc1B31nBbupq-4" value="d" style="text;html=1;align=center;verticalAlign=middle;resizable=0;points=[];autosize=1;strokeColor=none;fillColor=none;fontSize=22;" vertex="1" parent="1">
          <mxGeometry x="859" y="344" width="30" height="38" as="geometry" />
        </mxCell>
        <mxCell id="7z_1NLkMfc1B31nBbupq-16" style="edgeStyle=orthogonalEdgeStyle;rounded=0;orthogonalLoop=1;jettySize=auto;html=1;exitX=0.75;exitY=1;exitDx=0;exitDy=0;entryX=0.5;entryY=0;entryDx=0;entryDy=0;endArrow=none;startFill=0;strokeWidth=2;" edge="1" parent="1" source="7z_1NLkMfc1B31nBbupq-5" target="7z_1NLkMfc1B31nBbupq-14">
          <mxGeometry relative="1" as="geometry" />
        </mxCell>
        <mxCell id="7z_1NLkMfc1B31nBbupq-5" value="Alumno Graduado" style="whiteSpace=wrap;html=1;align=center;fontSize=16;" vertex="1" parent="1">
          <mxGeometry x="780" y="438" width="122" height="51" as="geometry" />
        </mxCell>
        <mxCell id="7z_1NLkMfc1B31nBbupq-17" style="edgeStyle=orthogonalEdgeStyle;rounded=0;orthogonalLoop=1;jettySize=auto;html=1;exitX=0.5;exitY=1;exitDx=0;exitDy=0;endArrow=none;startFill=0;strokeWidth=2;" edge="1" parent="1" source="7z_1NLkMfc1B31nBbupq-6" target="7z_1NLkMfc1B31nBbupq-15">
          <mxGeometry relative="1" as="geometry" />
        </mxCell>
        <mxCell id="7z_1NLkMfc1B31nBbupq-6" value="&lt;font style=&quot;font-size: 19px;&quot;&gt;Alumno no Graduado&lt;/font&gt;" style="whiteSpace=wrap;html=1;align=center;" vertex="1" parent="1">
          <mxGeometry x="1154" y="443" width="118" height="55" as="geometry" />
        </mxCell>
        <mxCell id="7z_1NLkMfc1B31nBbupq-8" style="edgeStyle=orthogonalEdgeStyle;rounded=0;orthogonalLoop=1;jettySize=auto;html=1;exitX=0.5;exitY=1;exitDx=0;exitDy=0;entryX=0.393;entryY=0.039;entryDx=0;entryDy=0;entryPerimeter=0;endArrow=none;startFill=0;strokeWidth=2;" edge="1" parent="1" source="7z_1NLkMfc1B31nBbupq-1" target="7z_1NLkMfc1B31nBbupq-5">
          <mxGeometry relative="1" as="geometry" />
        </mxCell>
        <mxCell id="7z_1NLkMfc1B31nBbupq-9" style="edgeStyle=orthogonalEdgeStyle;rounded=0;orthogonalLoop=1;jettySize=auto;html=1;exitX=0.5;exitY=0;exitDx=0;exitDy=0;entryX=0.322;entryY=0.036;entryDx=0;entryDy=0;entryPerimeter=0;endArrow=none;startFill=0;strokeWidth=2;" edge="1" parent="1" source="7z_1NLkMfc1B31nBbupq-1" target="7z_1NLkMfc1B31nBbupq-6">
          <mxGeometry relative="1" as="geometry" />
        </mxCell>
        <mxCell id="7z_1NLkMfc1B31nBbupq-12" style="edgeStyle=orthogonalEdgeStyle;rounded=0;orthogonalLoop=1;jettySize=auto;html=1;exitX=0;exitY=0.5;exitDx=0;exitDy=0;strokeWidth=2;" edge="1" parent="1" source="7z_1NLkMfc1B31nBbupq-10">
          <mxGeometry relative="1" as="geometry">
            <mxPoint x="905" y="468" as="targetPoint" />
          </mxGeometry>
        </mxCell>
        <mxCell id="7z_1NLkMfc1B31nBbupq-13" style="edgeStyle=orthogonalEdgeStyle;rounded=0;orthogonalLoop=1;jettySize=auto;html=1;exitX=1;exitY=0.5;exitDx=0;exitDy=0;entryX=0;entryY=0.5;entryDx=0;entryDy=0;strokeWidth=2;endArrow=none;startFill=0;" edge="1" parent="1" source="7z_1NLkMfc1B31nBbupq-10" target="7z_1NLkMfc1B31nBbupq-6">
          <mxGeometry relative="1" as="geometry" />
        </mxCell>
        <mxCell id="7z_1NLkMfc1B31nBbupq-10" value="&lt;font style=&quot;font-size: 19px;&quot;&gt;Tutorear&lt;/font&gt;" style="shape=rhombus;perimeter=rhombusPerimeter;whiteSpace=wrap;html=1;align=center;" vertex="1" parent="1">
          <mxGeometry x="971" y="438" width="120" height="60" as="geometry" />
        </mxCell>
        <mxCell id="7z_1NLkMfc1B31nBbupq-14" value="&lt;font style=&quot;font-size: 20px;&quot;&gt;Titulo&lt;/font&gt;" style="ellipse;whiteSpace=wrap;html=1;align=center;" vertex="1" parent="1">
          <mxGeometry x="859" y="545" width="100" height="40" as="geometry" />
        </mxCell>
        <mxCell id="7z_1NLkMfc1B31nBbupq-15" value="&lt;font style=&quot;font-size: 16px;&quot;&gt;Numero de expediente&lt;/font&gt;" style="ellipse;whiteSpace=wrap;html=1;align=center;" vertex="1" parent="1">
          <mxGeometry x="1177" y="547" width="110" height="51" as="geometry" />
        </mxCell>
        <mxCell id="7z_1NLkMfc1B31nBbupq-20" style="edgeStyle=orthogonalEdgeStyle;rounded=0;orthogonalLoop=1;jettySize=auto;html=1;exitX=1;exitY=0.5;exitDx=0;exitDy=0;entryX=0;entryY=0.25;entryDx=0;entryDy=0;strokeWidth=2;endArrow=none;startFill=0;" edge="1" parent="1" source="7z_1NLkMfc1B31nBbupq-18" target="7z_1NLkMfc1B31nBbupq-5">
          <mxGeometry relative="1" as="geometry">
            <mxPoint x="747" y="454" as="targetPoint" />
            <Array as="points">
              <mxPoint x="748" y="390" />
              <mxPoint x="748" y="451" />
            </Array>
          </mxGeometry>
        </mxCell>
        <mxCell id="7z_1NLkMfc1B31nBbupq-18" value="&lt;font style=&quot;font-size: 17px;&quot;&gt;Supervisar&lt;/font&gt;" style="shape=rhombus;perimeter=rhombusPerimeter;whiteSpace=wrap;html=1;align=center;" vertex="1" parent="1">
          <mxGeometry x="604" y="360" width="120" height="60" as="geometry" />
        </mxCell>
        <mxCell id="eHFIpsnLooeIqLXPNTxi-2" style="edgeStyle=orthogonalEdgeStyle;rounded=0;orthogonalLoop=1;jettySize=auto;html=1;exitX=0.5;exitY=0;exitDx=0;exitDy=0;entryX=0.25;entryY=1;entryDx=0;entryDy=0;strokeWidth=2;endArrow=none;startFill=0;" edge="1" parent="1" source="7z_1NLkMfc1B31nBbupq-23" target="vG0cqCVjyC4AnDkBP3Rt-1">
          <mxGeometry relative="1" as="geometry" />
        </mxCell>
        <mxCell id="eHFIpsnLooeIqLXPNTxi-3" style="edgeStyle=orthogonalEdgeStyle;rounded=0;orthogonalLoop=1;jettySize=auto;html=1;exitX=0;exitY=0.5;exitDx=0;exitDy=0;entryX=1;entryY=0.5;entryDx=0;entryDy=0;strokeWidth=2;" edge="1" parent="1" source="7z_1NLkMfc1B31nBbupq-23" target="7z_1NLkMfc1B31nBbupq-24">
          <mxGeometry relative="1" as="geometry" />
        </mxCell>
        <mxCell id="eHFIpsnLooeIqLXPNTxi-5" style="edgeStyle=orthogonalEdgeStyle;rounded=0;orthogonalLoop=1;jettySize=auto;html=1;exitX=0;exitY=1;exitDx=0;exitDy=0;entryX=1;entryY=0.5;entryDx=0;entryDy=0;strokeWidth=2;" edge="1" parent="1" source="7z_1NLkMfc1B31nBbupq-23" target="eHFIpsnLooeIqLXPNTxi-4">
          <mxGeometry relative="1" as="geometry" />
        </mxCell>
        <mxCell id="7z_1NLkMfc1B31nBbupq-23" value="&lt;font style=&quot;font-size: 21px;&quot;&gt;Ocupar&lt;/font&gt;" style="shape=rhombus;perimeter=rhombusPerimeter;whiteSpace=wrap;html=1;align=center;" vertex="1" parent="1">
          <mxGeometry x="-27" y="432.75" width="120" height="60" as="geometry" />
        </mxCell>
        <mxCell id="7z_1NLkMfc1B31nBbupq-24" value="&lt;font style=&quot;font-size: 17px;&quot;&gt;NombreCargo&lt;/font&gt;" style="ellipse;whiteSpace=wrap;html=1;align=center;fontStyle=4;" vertex="1" parent="1">
          <mxGeometry x="-205" y="402" width="122" height="52" as="geometry" />
        </mxCell>
        <mxCell id="eHFIpsnLooeIqLXPNTxi-4" value="&lt;font style=&quot;font-size: 16px;&quot;&gt;CargaHoraria&lt;/font&gt;" style="ellipse;whiteSpace=wrap;html=1;align=center;" vertex="1" parent="1">
          <mxGeometry x="-207" y="478" width="126" height="44.5" as="geometry" />
        </mxCell>
      </root>
    </mxGraphModel>
  </diagram>
  <diagram name="Copia de PÃ¡gina-1" id="aIZaOplJsj-urO7Rq6yB">
    <mxGraphModel grid="0" page="0" gridSize="10" guides="1" tooltips="1" connect="1" arrows="1" fold="1" pageScale="1" pageWidth="3300" pageHeight="4681" math="0" shadow="0">
      <root>
        <mxCell id="k1BWHJzf3npKOHhUKRRU-0" />
        <mxCell id="k1BWHJzf3npKOHhUKRRU-1" parent="k1BWHJzf3npKOHhUKRRU-0" />
        <mxCell id="k1BWHJzf3npKOHhUKRRU-2" value="" style="edgeStyle=none;curved=1;rounded=0;orthogonalLoop=1;jettySize=auto;html=1;fontSize=12;startSize=8;endSize=8;endArrow=none;startFill=0;" parent="k1BWHJzf3npKOHhUKRRU-1" source="k1BWHJzf3npKOHhUKRRU-6" target="k1BWHJzf3npKOHhUKRRU-14" edge="1">
          <mxGeometry relative="1" as="geometry" />
        </mxCell>
        <mxCell id="k1BWHJzf3npKOHhUKRRU-3" value="" style="edgeStyle=none;curved=1;rounded=0;orthogonalLoop=1;jettySize=auto;html=1;fontSize=12;startSize=8;endSize=8;endArrow=none;startFill=0;" parent="k1BWHJzf3npKOHhUKRRU-1" source="k1BWHJzf3npKOHhUKRRU-6" target="k1BWHJzf3npKOHhUKRRU-19" edge="1">
          <mxGeometry relative="1" as="geometry" />
        </mxCell>
        <mxCell id="k1BWHJzf3npKOHhUKRRU-4" style="edgeStyle=none;curved=1;rounded=0;orthogonalLoop=1;jettySize=auto;html=1;exitX=0.25;exitY=0;exitDx=0;exitDy=0;entryX=0.5;entryY=1;entryDx=0;entryDy=0;fontSize=12;startSize=8;endSize=8;endArrow=none;startFill=0;" parent="k1BWHJzf3npKOHhUKRRU-1" source="k1BWHJzf3npKOHhUKRRU-6" target="k1BWHJzf3npKOHhUKRRU-39" edge="1">
          <mxGeometry relative="1" as="geometry" />
        </mxCell>
        <mxCell id="k1BWHJzf3npKOHhUKRRU-5" style="edgeStyle=none;curved=1;rounded=0;orthogonalLoop=1;jettySize=auto;html=1;exitX=0.75;exitY=0;exitDx=0;exitDy=0;entryX=0.5;entryY=1;entryDx=0;entryDy=0;fontSize=12;startSize=8;endSize=8;endArrow=none;startFill=0;" parent="k1BWHJzf3npKOHhUKRRU-1" source="k1BWHJzf3npKOHhUKRRU-6" target="k1BWHJzf3npKOHhUKRRU-36" edge="1">
          <mxGeometry relative="1" as="geometry" />
        </mxCell>
        <mxCell id="k1BWHJzf3npKOHhUKRRU-6" value="&lt;font style=&quot;font-size: 17px;&quot;&gt;Departamento&lt;/font&gt;" style="rounded=0;whiteSpace=wrap;html=1;" parent="k1BWHJzf3npKOHhUKRRU-1" vertex="1">
          <mxGeometry x="60" y="328" width="120" height="41" as="geometry" />
        </mxCell>
        <mxCell id="k1BWHJzf3npKOHhUKRRU-7" value="" style="edgeStyle=none;curved=1;rounded=0;orthogonalLoop=1;jettySize=auto;html=1;fontSize=12;startSize=8;endSize=8;endArrow=none;startFill=1;startArrow=classic;" parent="k1BWHJzf3npKOHhUKRRU-1" source="k1BWHJzf3npKOHhUKRRU-12" target="k1BWHJzf3npKOHhUKRRU-20" edge="1">
          <mxGeometry relative="1" as="geometry" />
        </mxCell>
        <mxCell id="k1BWHJzf3npKOHhUKRRU-8" value="" style="edgeStyle=none;curved=1;rounded=0;orthogonalLoop=1;jettySize=auto;html=1;fontSize=12;startSize=8;endSize=8;endArrow=none;startFill=0;" parent="k1BWHJzf3npKOHhUKRRU-1" source="k1BWHJzf3npKOHhUKRRU-12" target="k1BWHJzf3npKOHhUKRRU-47" edge="1">
          <mxGeometry relative="1" as="geometry" />
        </mxCell>
        <mxCell id="k1BWHJzf3npKOHhUKRRU-9" value="" style="edgeStyle=none;curved=1;rounded=0;orthogonalLoop=1;jettySize=auto;html=1;fontSize=12;startSize=8;endSize=8;endArrow=none;startFill=0;" parent="k1BWHJzf3npKOHhUKRRU-1" source="k1BWHJzf3npKOHhUKRRU-12" target="k1BWHJzf3npKOHhUKRRU-49" edge="1">
          <mxGeometry relative="1" as="geometry" />
        </mxCell>
        <mxCell id="k1BWHJzf3npKOHhUKRRU-10" style="edgeStyle=none;curved=1;rounded=0;orthogonalLoop=1;jettySize=auto;html=1;exitX=1;exitY=0;exitDx=0;exitDy=0;entryX=0;entryY=0.5;entryDx=0;entryDy=0;fontSize=12;startSize=8;endSize=8;endArrow=none;startFill=0;" parent="k1BWHJzf3npKOHhUKRRU-1" source="k1BWHJzf3npKOHhUKRRU-12" target="k1BWHJzf3npKOHhUKRRU-48" edge="1">
          <mxGeometry relative="1" as="geometry" />
        </mxCell>
        <mxCell id="k1BWHJzf3npKOHhUKRRU-11" style="edgeStyle=none;curved=1;rounded=0;orthogonalLoop=1;jettySize=auto;html=1;exitX=1;exitY=1;exitDx=0;exitDy=0;entryX=0;entryY=0.5;entryDx=0;entryDy=0;fontSize=12;startSize=8;endSize=8;endArrow=none;startFill=0;" parent="k1BWHJzf3npKOHhUKRRU-1" source="k1BWHJzf3npKOHhUKRRU-12" target="k1BWHJzf3npKOHhUKRRU-50" edge="1">
          <mxGeometry relative="1" as="geometry" />
        </mxCell>
        <mxCell id="k1BWHJzf3npKOHhUKRRU-12" value="&lt;font style=&quot;font-size: 17px;&quot;&gt;Alumno&lt;/font&gt;" style="rounded=0;whiteSpace=wrap;html=1;" parent="k1BWHJzf3npKOHhUKRRU-1" vertex="1">
          <mxGeometry x="441" y="328" width="120" height="41" as="geometry" />
        </mxCell>
        <mxCell id="k1BWHJzf3npKOHhUKRRU-13" value="" style="edgeStyle=none;curved=1;rounded=0;orthogonalLoop=1;jettySize=auto;html=1;fontSize=12;startSize=8;endSize=8;endArrow=none;startFill=0;" parent="k1BWHJzf3npKOHhUKRRU-1" source="k1BWHJzf3npKOHhUKRRU-14" target="k1BWHJzf3npKOHhUKRRU-12" edge="1">
          <mxGeometry relative="1" as="geometry" />
        </mxCell>
        <mxCell id="k1BWHJzf3npKOHhUKRRU-14" value="&lt;font style=&quot;font-size: 17px;&quot;&gt;Estudiar&lt;/font&gt;" style="rhombus;whiteSpace=wrap;html=1;" parent="k1BWHJzf3npKOHhUKRRU-1" vertex="1">
          <mxGeometry x="255" y="312.75" width="111" height="71.5" as="geometry" />
        </mxCell>
        <mxCell id="k1BWHJzf3npKOHhUKRRU-15" style="edgeStyle=orthogonalEdgeStyle;rounded=0;orthogonalLoop=1;jettySize=auto;html=1;exitX=1;exitY=0.5;exitDx=0;exitDy=0;fontSize=12;startSize=8;endSize=8;entryX=0;entryY=0.25;entryDx=0;entryDy=0;endArrow=none;startFill=0;" parent="k1BWHJzf3npKOHhUKRRU-1" source="k1BWHJzf3npKOHhUKRRU-17" target="k1BWHJzf3npKOHhUKRRU-34" edge="1">
          <mxGeometry relative="1" as="geometry">
            <mxPoint x="402" y="586" as="targetPoint" />
            <Array as="points">
              <mxPoint x="391" y="534" />
              <mxPoint x="391" y="589" />
            </Array>
          </mxGeometry>
        </mxCell>
        <mxCell id="k1BWHJzf3npKOHhUKRRU-16" style="edgeStyle=orthogonalEdgeStyle;rounded=0;orthogonalLoop=1;jettySize=auto;html=1;exitX=0;exitY=0.5;exitDx=0;exitDy=0;fontSize=12;startSize=8;endSize=8;entryX=1;entryY=0.25;entryDx=0;entryDy=0;endArrow=none;startFill=0;" parent="k1BWHJzf3npKOHhUKRRU-1" source="k1BWHJzf3npKOHhUKRRU-17" target="k1BWHJzf3npKOHhUKRRU-28" edge="1">
          <mxGeometry relative="1" as="geometry">
            <mxPoint x="224" y="588" as="targetPoint" />
            <Array as="points">
              <mxPoint x="225" y="534" />
              <mxPoint x="225" y="589" />
            </Array>
          </mxGeometry>
        </mxCell>
        <mxCell id="k1BWHJzf3npKOHhUKRRU-17" value="&lt;font style=&quot;font-size: 17px;&quot;&gt;Administrar&lt;/font&gt;" style="rhombus;whiteSpace=wrap;html=1;" parent="k1BWHJzf3npKOHhUKRRU-1" vertex="1">
          <mxGeometry x="255" y="498" width="111" height="71.5" as="geometry" />
        </mxCell>
        <mxCell id="k1BWHJzf3npKOHhUKRRU-18" value="" style="edgeStyle=none;curved=1;rounded=0;orthogonalLoop=1;jettySize=auto;html=1;fontSize=12;startSize=8;endSize=8;endArrow=none;startFill=0;" parent="k1BWHJzf3npKOHhUKRRU-1" source="k1BWHJzf3npKOHhUKRRU-19" target="k1BWHJzf3npKOHhUKRRU-28" edge="1">
          <mxGeometry relative="1" as="geometry" />
        </mxCell>
        <mxCell id="k1BWHJzf3npKOHhUKRRU-19" value="&lt;font style=&quot;font-size: 17px;&quot;&gt;Trabajar&lt;/font&gt;" style="rhombus;whiteSpace=wrap;html=1;" parent="k1BWHJzf3npKOHhUKRRU-1" vertex="1">
          <mxGeometry x="64.5" y="438" width="111" height="71.5" as="geometry" />
        </mxCell>
        <mxCell id="k1BWHJzf3npKOHhUKRRU-20" value="&lt;font style=&quot;font-size: 17px;&quot;&gt;Participar&lt;/font&gt;" style="rhombus;whiteSpace=wrap;html=1;" parent="k1BWHJzf3npKOHhUKRRU-1" vertex="1">
          <mxGeometry x="445.5" y="438" width="111" height="71.5" as="geometry" />
        </mxCell>
        <mxCell id="k1BWHJzf3npKOHhUKRRU-21" style="edgeStyle=orthogonalEdgeStyle;rounded=0;orthogonalLoop=1;jettySize=auto;html=1;exitX=0;exitY=0.5;exitDx=0;exitDy=0;fontSize=12;startSize=8;endSize=8;entryX=1;entryY=0.75;entryDx=0;entryDy=0;" parent="k1BWHJzf3npKOHhUKRRU-1" source="k1BWHJzf3npKOHhUKRRU-23" target="k1BWHJzf3npKOHhUKRRU-28" edge="1">
          <mxGeometry relative="1" as="geometry">
            <mxPoint x="222" y="610" as="targetPoint" />
            <Array as="points">
              <mxPoint x="223" y="689" />
              <mxPoint x="223" y="610" />
            </Array>
          </mxGeometry>
        </mxCell>
        <mxCell id="k1BWHJzf3npKOHhUKRRU-22" style="edgeStyle=orthogonalEdgeStyle;rounded=0;orthogonalLoop=1;jettySize=auto;html=1;exitX=1;exitY=0.5;exitDx=0;exitDy=0;fontSize=12;startSize=8;endSize=8;entryX=0;entryY=0.75;entryDx=0;entryDy=0;endArrow=none;startFill=0;" parent="k1BWHJzf3npKOHhUKRRU-1" source="k1BWHJzf3npKOHhUKRRU-23" target="k1BWHJzf3npKOHhUKRRU-34" edge="1">
          <mxGeometry relative="1" as="geometry">
            <mxPoint x="402" y="602" as="targetPoint" />
            <Array as="points">
              <mxPoint x="392" y="689" />
              <mxPoint x="392" y="610" />
            </Array>
          </mxGeometry>
        </mxCell>
        <mxCell id="k1BWHJzf3npKOHhUKRRU-23" value="&lt;font style=&quot;font-size: 17px;&quot;&gt;Trabajar&lt;/font&gt;" style="rhombus;whiteSpace=wrap;html=1;" parent="k1BWHJzf3npKOHhUKRRU-1" vertex="1">
          <mxGeometry x="255" y="693" width="111" height="71.5" as="geometry" />
        </mxCell>
        <mxCell id="k1BWHJzf3npKOHhUKRRU-24" style="edgeStyle=none;curved=1;rounded=0;orthogonalLoop=1;jettySize=auto;html=1;exitX=0;exitY=0;exitDx=0;exitDy=0;entryX=1;entryY=0.5;entryDx=0;entryDy=0;fontSize=12;startSize=8;endSize=8;endArrow=none;startFill=0;" parent="k1BWHJzf3npKOHhUKRRU-1" source="k1BWHJzf3npKOHhUKRRU-28" target="k1BWHJzf3npKOHhUKRRU-43" edge="1">
          <mxGeometry relative="1" as="geometry" />
        </mxCell>
        <mxCell id="k1BWHJzf3npKOHhUKRRU-25" style="edgeStyle=none;curved=1;rounded=0;orthogonalLoop=1;jettySize=auto;html=1;exitX=0;exitY=1;exitDx=0;exitDy=0;entryX=1;entryY=0.5;entryDx=0;entryDy=0;fontSize=12;startSize=8;endSize=8;endArrow=none;startFill=0;" parent="k1BWHJzf3npKOHhUKRRU-1" source="k1BWHJzf3npKOHhUKRRU-28" target="k1BWHJzf3npKOHhUKRRU-41" edge="1">
          <mxGeometry relative="1" as="geometry" />
        </mxCell>
        <mxCell id="k1BWHJzf3npKOHhUKRRU-26" value="" style="edgeStyle=none;curved=1;rounded=0;orthogonalLoop=1;jettySize=auto;html=1;fontSize=12;startSize=8;endSize=8;endArrow=none;startFill=0;" parent="k1BWHJzf3npKOHhUKRRU-1" source="k1BWHJzf3npKOHhUKRRU-28" target="k1BWHJzf3npKOHhUKRRU-35" edge="1">
          <mxGeometry relative="1" as="geometry" />
        </mxCell>
        <mxCell id="k1BWHJzf3npKOHhUKRRU-27" value="" style="edgeStyle=none;curved=1;rounded=0;orthogonalLoop=1;jettySize=auto;html=1;fontSize=12;startSize=8;endSize=8;endArrow=none;startFill=0;" parent="k1BWHJzf3npKOHhUKRRU-1" source="k1BWHJzf3npKOHhUKRRU-28" target="k1BWHJzf3npKOHhUKRRU-42" edge="1">
          <mxGeometry relative="1" as="geometry" />
        </mxCell>
        <mxCell id="k1BWHJzf3npKOHhUKRRU-28" value="&lt;font style=&quot;font-size: 17px;&quot;&gt;Profesor&lt;/font&gt;" style="rounded=0;whiteSpace=wrap;html=1;" parent="k1BWHJzf3npKOHhUKRRU-1" vertex="1">
          <mxGeometry x="60" y="579" width="120" height="41" as="geometry" />
        </mxCell>
        <mxCell id="k1BWHJzf3npKOHhUKRRU-29" style="edgeStyle=none;curved=1;rounded=0;orthogonalLoop=1;jettySize=auto;html=1;exitX=1;exitY=0;exitDx=0;exitDy=0;entryX=0;entryY=0.5;entryDx=0;entryDy=0;fontSize=12;startSize=8;endSize=8;endArrow=none;startFill=0;" parent="k1BWHJzf3npKOHhUKRRU-1" source="k1BWHJzf3npKOHhUKRRU-34" target="k1BWHJzf3npKOHhUKRRU-40" edge="1">
          <mxGeometry relative="1" as="geometry" />
        </mxCell>
        <mxCell id="k1BWHJzf3npKOHhUKRRU-30" value="" style="edgeStyle=none;curved=1;rounded=0;orthogonalLoop=1;jettySize=auto;html=1;fontSize=12;startSize=8;endSize=8;endArrow=none;startFill=0;" parent="k1BWHJzf3npKOHhUKRRU-1" source="k1BWHJzf3npKOHhUKRRU-34" target="k1BWHJzf3npKOHhUKRRU-44" edge="1">
          <mxGeometry relative="1" as="geometry" />
        </mxCell>
        <mxCell id="k1BWHJzf3npKOHhUKRRU-31" value="" style="edgeStyle=none;curved=1;rounded=0;orthogonalLoop=1;jettySize=auto;html=1;fontSize=12;startSize=8;endSize=8;endArrow=none;startFill=0;" parent="k1BWHJzf3npKOHhUKRRU-1" source="k1BWHJzf3npKOHhUKRRU-34" target="k1BWHJzf3npKOHhUKRRU-46" edge="1">
          <mxGeometry relative="1" as="geometry" />
        </mxCell>
        <mxCell id="k1BWHJzf3npKOHhUKRRU-32" style="edgeStyle=none;curved=1;rounded=0;orthogonalLoop=1;jettySize=auto;html=1;exitX=1;exitY=1;exitDx=0;exitDy=0;entryX=0;entryY=0.5;entryDx=0;entryDy=0;fontSize=12;startSize=8;endSize=8;endArrow=none;startFill=0;" parent="k1BWHJzf3npKOHhUKRRU-1" source="k1BWHJzf3npKOHhUKRRU-34" target="k1BWHJzf3npKOHhUKRRU-45" edge="1">
          <mxGeometry relative="1" as="geometry" />
        </mxCell>
        <mxCell id="k1BWHJzf3npKOHhUKRRU-33" value="" style="edgeStyle=none;curved=1;rounded=0;orthogonalLoop=1;jettySize=auto;html=1;fontSize=12;startSize=8;endSize=8;endArrow=none;startFill=0;" parent="k1BWHJzf3npKOHhUKRRU-1" source="k1BWHJzf3npKOHhUKRRU-34" target="k1BWHJzf3npKOHhUKRRU-20" edge="1">
          <mxGeometry relative="1" as="geometry" />
        </mxCell>
        <mxCell id="k1BWHJzf3npKOHhUKRRU-34" value="&lt;font style=&quot;font-size: 17px;&quot;&gt;Proyecto&lt;/font&gt;" style="rounded=0;whiteSpace=wrap;html=1;" parent="k1BWHJzf3npKOHhUKRRU-1" vertex="1">
          <mxGeometry x="441" y="579" width="120" height="41" as="geometry" />
        </mxCell>
        <mxCell id="k1BWHJzf3npKOHhUKRRU-35" value="&lt;font style=&quot;font-size: 17px;&quot;&gt;Nombre&lt;/font&gt;" style="ellipse;whiteSpace=wrap;html=1;" parent="k1BWHJzf3npKOHhUKRRU-1" vertex="1">
          <mxGeometry x="-130" y="576.25" width="114" height="46.5" as="geometry" />
        </mxCell>
        <mxCell id="k1BWHJzf3npKOHhUKRRU-36" value="&lt;font style=&quot;font-size: 17px;&quot;&gt;Oficina&lt;/font&gt;" style="ellipse;whiteSpace=wrap;html=1;" parent="k1BWHJzf3npKOHhUKRRU-1" vertex="1">
          <mxGeometry x="141" y="223" width="114" height="46.5" as="geometry" />
        </mxCell>
        <mxCell id="k1BWHJzf3npKOHhUKRRU-37" value="" style="edgeStyle=none;curved=1;rounded=0;orthogonalLoop=1;jettySize=auto;html=1;fontSize=12;startSize=8;endSize=8;endArrow=none;startFill=0;" parent="k1BWHJzf3npKOHhUKRRU-1" source="k1BWHJzf3npKOHhUKRRU-38" target="k1BWHJzf3npKOHhUKRRU-6" edge="1">
          <mxGeometry relative="1" as="geometry" />
        </mxCell>
        <mxCell id="k1BWHJzf3npKOHhUKRRU-38" value="&lt;font style=&quot;font-size: 17px;&quot;&gt;&lt;u&gt;NÃºmero&lt;/u&gt;&lt;/font&gt;" style="ellipse;whiteSpace=wrap;html=1;" parent="k1BWHJzf3npKOHhUKRRU-1" vertex="1">
          <mxGeometry x="-130" y="325.25" width="114" height="46.5" as="geometry" />
        </mxCell>
        <mxCell id="k1BWHJzf3npKOHhUKRRU-39" value="&lt;font style=&quot;font-size: 17px;&quot;&gt;Nombre&lt;/font&gt;" style="ellipse;whiteSpace=wrap;html=1;" parent="k1BWHJzf3npKOHhUKRRU-1" vertex="1">
          <mxGeometry x="-16" y="223" width="114" height="46.5" as="geometry" />
        </mxCell>
        <mxCell id="k1BWHJzf3npKOHhUKRRU-40" value="&lt;font style=&quot;font-size: 17px;&quot;&gt;FechaInicio&lt;/font&gt;" style="ellipse;whiteSpace=wrap;html=1;" parent="k1BWHJzf3npKOHhUKRRU-1" vertex="1">
          <mxGeometry x="628" y="504" width="114" height="46.5" as="geometry" />
        </mxCell>
        <mxCell id="k1BWHJzf3npKOHhUKRRU-41" value="&lt;font style=&quot;font-size: 17px;&quot;&gt;Apellidos&lt;/font&gt;" style="ellipse;whiteSpace=wrap;html=1;" parent="k1BWHJzf3npKOHhUKRRU-1" vertex="1">
          <mxGeometry x="-130" y="673" width="114" height="46.5" as="geometry" />
        </mxCell>
        <mxCell id="k1BWHJzf3npKOHhUKRRU-42" value="&lt;font style=&quot;font-size: 17px;&quot;&gt;Titulo&lt;/font&gt;" style="ellipse;whiteSpace=wrap;html=1;" parent="k1BWHJzf3npKOHhUKRRU-1" vertex="1">
          <mxGeometry x="63" y="697" width="114" height="46.5" as="geometry" />
        </mxCell>
        <mxCell id="k1BWHJzf3npKOHhUKRRU-43" value="&lt;font style=&quot;font-size: 17px;&quot;&gt;&lt;u&gt;NumProf&lt;/u&gt;&lt;/font&gt;" style="ellipse;whiteSpace=wrap;html=1;" parent="k1BWHJzf3npKOHhUKRRU-1" vertex="1">
          <mxGeometry x="-130" y="480" width="114" height="46.5" as="geometry" />
        </mxCell>
        <mxCell id="k1BWHJzf3npKOHhUKRRU-44" value="&lt;font style=&quot;font-size: 17px;&quot;&gt;Presupuesto&lt;/font&gt;" style="ellipse;whiteSpace=wrap;html=1;" parent="k1BWHJzf3npKOHhUKRRU-1" vertex="1">
          <mxGeometry x="628" y="576.25" width="114" height="46.5" as="geometry" />
        </mxCell>
        <mxCell id="k1BWHJzf3npKOHhUKRRU-45" value="&lt;font style=&quot;font-size: 17px;&quot;&gt;FechaFin&lt;/font&gt;" style="ellipse;whiteSpace=wrap;html=1;" parent="k1BWHJzf3npKOHhUKRRU-1" vertex="1">
          <mxGeometry x="628" y="649" width="114" height="46.5" as="geometry" />
        </mxCell>
        <mxCell id="k1BWHJzf3npKOHhUKRRU-46" value="&lt;font style=&quot;font-size: 17px;&quot;&gt;&lt;u&gt;IdProyecto&lt;/u&gt;&lt;/font&gt;" style="ellipse;whiteSpace=wrap;html=1;" parent="k1BWHJzf3npKOHhUKRRU-1" vertex="1">
          <mxGeometry x="444" y="673" width="114" height="46.5" as="geometry" />
        </mxCell>
        <mxCell id="k1BWHJzf3npKOHhUKRRU-47" value="&lt;font style=&quot;font-size: 17px;&quot;&gt;&lt;u&gt;NumCta&lt;/u&gt;&lt;/font&gt;" style="ellipse;whiteSpace=wrap;html=1;" parent="k1BWHJzf3npKOHhUKRRU-1" vertex="1">
          <mxGeometry x="444" y="239" width="114" height="46.5" as="geometry" />
        </mxCell>
        <mxCell id="k1BWHJzf3npKOHhUKRRU-48" value="&lt;font style=&quot;font-size: 17px;&quot;&gt;Nombre&lt;/font&gt;" style="ellipse;whiteSpace=wrap;html=1;" parent="k1BWHJzf3npKOHhUKRRU-1" vertex="1">
          <mxGeometry x="628" y="252" width="114" height="46.5" as="geometry" />
        </mxCell>
        <mxCell id="k1BWHJzf3npKOHhUKRRU-49" value="&lt;font style=&quot;font-size: 17px;&quot;&gt;Apellidos&lt;/font&gt;" style="ellipse;whiteSpace=wrap;html=1;" parent="k1BWHJzf3npKOHhUKRRU-1" vertex="1">
          <mxGeometry x="628" y="325.25" width="114" height="46.5" as="geometry" />
        </mxCell>
        <mxCell id="k1BWHJzf3npKOHhUKRRU-50" value="&lt;font style=&quot;font-size: 17px;&quot;&gt;TelÃ©fono&lt;/font&gt;" style="ellipse;whiteSpace=wrap;html=1;" parent="k1BWHJzf3npKOHhUKRRU-1" vertex="1">
          <mxGeometry x="628" y="399" width="114" height="46.5" as="geometry" />
        </mxCell>
      </root>
    </mxGraphModel>
  </diagram>
</mxfile>
